<svg xmlns="http://www.w3.org/2000/svg" viewBox="0 0 960 140" fill="none" aria-hidden="true">
  <defs>
    <linearGradient id="sky" x1="0%" y1="0%" x2="0%" y2="100%">
      <stop offset="0%" style="stop-color:#14082a"/>
      <stop offset="55%" style="stop-color:#1a0a32"/>
      <stop offset="100%" style="stop-color:#0a0518"/>
    </linearGradient>
    <linearGradient id="glow" x1="50%" y1="0%" x2="50%" y2="100%">
      <stop offset="0%" style="stop-color:#fb64b6;stop-opacity:0.35"/>
      <stop offset="100%" style="stop-color:#e879f9;stop-opacity:0"/>
    </linearGradient>
  </defs>
  <rect width="960" height="140" fill="url(#sky)"/>
  <ellipse cx="780" cy="28" rx="120" ry="36" fill="url(#glow)"/>
  <ellipse cx="160" cy="32" rx="90" ry="28" fill="rgba(245,180,255,0.08)"/>
  <path d="M0 98 Q160 78 320 88 T640 82 T960 90 L960 140 L0 140 Z" fill="rgba(20,120,140,0.25)"/>
  <path d="M0 104 Q200 92 400 100 T800 96 T960 102 L960 140 L0 140 Z" fill="rgba(124,92,173,0.35)"/>
  <path d="M0 112 Q240 100 480 108 T960 110 L960 140 L0 140 Z" fill="rgba(8,4,18,0.85)"/>
  <circle cx="120" cy="36" r="2" fill="#fff8ff" opacity="0.5"/>
  <circle cx="220" cy="22" r="1.5" fill="#fff8ff" opacity="0.45"/>
  <circle cx="640" cy="28" r="2" fill="#fff8ff" opacity="0.4"/>
  <circle cx="520" cy="18" r="1" fill="#fff8ff" opacity="0.35"/>
</svg>
